<svg version="1.1" id="Layer_1" xmlns="http://www.w3.org/2000/svg" xmlns:xlink="http://www.w3.org/1999/xlink" x="0px" y="0px" viewBox="0 0 24 24" enable-background="new 0 0 24 24" xml:space="preserve">
<g>
<path fill="#000000" d="M23.7703438,11.0791016c-0.0693359-0.0449219-1.4980469-0.9472656-2.8486328-0.7324219
		C20.5945625,8.9775391,19.3387032,8.125,19.2771797,8.0839844c-0.203125-0.1347656-0.4697266-0.1064453-0.6376953,0.0693359
		c-0.0996094,0.1035156-0.9667969,1.0742188-0.7216797,3.2822266c0.0175781,0.1523438-0.0283203,0.3027344-0.1259766,0.4111328
		C17.7039375,11.9453125,17.5818672,12,17.4480782,12H16.999836V9.5c0-0.2763672-0.2236328-0.5-0.5-0.5h-2.5V6.5v-3
		c0-0.2763672-0.2236328-0.5-0.5-0.5h-3c-0.2763672,0-0.5,0.2236328-0.5,0.5V6H7.4998364h-3
		C4.2234693,6,3.9998362,6.2236328,3.9998362,6.5V9h-2.5c-0.2763672,0-0.5,0.2236328-0.5,0.5V12h-0.5
		c-0.2763672,0-0.5,0.2236328-0.5,0.5c0,7.671875,5.5947266,8.5,8,8.5c6.1933589,0,10.4980469-3.7617188,12.3769531-7.0771484
		c2.4755859-0.3945313,3.5087891-2.09375,3.5537109-2.1679688C24.0672188,11.5234375,23.9969063,11.2246094,23.7703438,11.0791016z" id="id_101"></path>
<rect x="13.999836" y="10" fill="#ffffff" width="2" height="2" id="id_102"></rect>
<rect x="10.999836" y="10" fill="#ffffff" width="2" height="2" id="id_103"></rect>
<rect x="7.9998364" y="10" fill="#ffffff" width="2" height="2" id="id_104"></rect>
<rect x="4.9998364" y="10" fill="#ffffff" width="2" height="2" id="id_105"></rect>
<rect x="10.999836" y="7" fill="#ffffff" width="2" height="2" id="id_106"></rect>
<rect x="10.999836" y="4" fill="#ffffff" width="2" height="2" id="id_107"></rect>
<rect x="7.9998364" y="7" fill="#ffffff" width="2" height="2" id="id_108"></rect>
<rect x="4.9998364" y="7" fill="#ffffff" width="2" height="2" id="id_109"></rect>
<rect x="1.9998362" y="10" fill="#ffffff" width="2" height="2" id="id_110"></rect>
<path fill="#ffffff" d="M20.0017891,12.9648438c-0.1621094,0.0195313-0.3046875,0.1162109-0.3818359,0.2607422
		C17.9422188,16.3505859,13.8914375,20,7.9998364,20c-2.5458984,0-6.7724609-0.9238281-6.9912109-7h16.4394531
		c0.421875,0,0.8085938-0.1728516,1.0888672-0.4863281c0.2871094-0.3212891,0.4238281-0.7539063,0.375-1.1894531
		c-0.1132813-1.0195313,0.0527344-1.6865234,0.2138672-2.0693359C19.5008125,9.6171875,19.999836,10.2412109,19.999836,11
		c0,0.1728516,0.0898438,0.3339844,0.2373047,0.4257813c0.1455078,0.0888672,0.3310547,0.0986328,0.4863281,0.0214844
		c0.5947266-0.2998047,1.4404297-0.0478516,2.0146484,0.2119141C22.3064766,12.1142578,21.4373264,12.796875,20.0017891,12.9648438z
		" id="id_111"></path>
<path opacity="0.1" d="M20.7234688,11.4472656c-0.1088257,0.0540771-0.2286377,0.0507813-0.3430176,0.0222168
		c-0.9385986,0.7288208-1.8095703,1.5479736-2.6174316,2.4241943C15.4880562,16.361145,11.9049263,18.5,7.2441602,18.5
		c-1.6199951,0-3.8712771-0.3610229-5.4819336-2.0160522C3.1317942,19.4515991,6.0539136,20,7.9998364,20
		c5.8916011,0,9.9423828-3.6494141,11.6201172-6.7744141c0.0771484-0.1445313,0.2197266-0.2412109,0.3818359-0.2607422
		c1.4355373-0.1679688,2.3046875-0.8505859,2.7363281-1.3056641C22.1638985,11.3994141,21.3181953,11.1474609,20.7234688,11.4472656
		z" id="id_112" style="fill: rgb(0, 0, 0);"></path>
<circle fill="#000000" cx="5.0408521" cy="16" r="1" id="id_113"></circle>
<circle fill="#FFFFFF" cx="5.4685864" cy="15.729167" r="0.3229167" id="id_114"></circle>
<linearGradient id="SVGID_1_" gradientUnits="userSpaceOnUse" x1="1.5565449" y1="8.194829" x2="21.3001232" y2="17.4014111">
<stop offset="0" style="stop-color:#FFFFFF;stop-opacity:0.2" id="id_116"></stop>
<stop offset="1" style="stop-color:#FFFFFF;stop-opacity:0" id="id_117"></stop>
</linearGradient>
<path fill="url(#SVGID_1_)" d="M23.7703438,11.0791016c-0.0693359-0.0449219-1.4980469-0.9472656-2.8486328-0.7324219
		C20.5945625,8.9775391,19.3387032,8.125,19.2771797,8.0839844c-0.203125-0.1347656-0.4697266-0.1064453-0.6376953,0.0693359
		c-0.0996094,0.1035156-0.9667969,1.0742188-0.7216797,3.2822266c0.0175781,0.1523438-0.0283203,0.3027344-0.1259766,0.4111328
		C17.7039375,11.9453125,17.5818672,12,17.4480782,12H16.999836V9.5c0-0.2763672-0.2236328-0.5-0.5-0.5h-2.5V6.5v-3
		c0-0.2763672-0.2236328-0.5-0.5-0.5h-3c-0.2763672,0-0.5,0.2236328-0.5,0.5V6H7.4998364h-3
		C4.2234693,6,3.9998362,6.2236328,3.9998362,6.5V9h-2.5c-0.2763672,0-0.5,0.2236328-0.5,0.5V12h-0.5
		c-0.2763672,0-0.5,0.2236328-0.5,0.5c0,7.671875,5.5947266,8.5,8,8.5c6.1933589,0,10.4980469-3.7617188,12.3769531-7.0771484
		c2.4755859-0.3945313,3.5087891-2.09375,3.5537109-2.1679688C24.0672188,11.5234375,23.9969063,11.2246094,23.7703438,11.0791016z" id="id_115"></path>
</g>
<g>
</g>
<g>
</g>
<g>
</g>
<g>
</g>
<g>
</g>
<g>
</g>
<g>
</g>
<g>
</g>
<g>
</g>
<g>
</g>
<g>
</g>
<g>
</g>
<g>
</g>
<g>
</g>
<g>
</g>
</svg>